<?xml version="1.0" encoding="utf-8"?>
<!-- Generator: Adobe Illustrator 25.0.0, SVG Export Plug-In . SVG Version: 6.00 Build 0)  -->
<svg version="1.1" id="Capa_1" xmlns="http://www.w3.org/2000/svg" xmlns:xlink="http://www.w3.org/1999/xlink" x="0px" y="0px"
	 viewBox="0 0 198.37 149.28" style="enable-background:new 0 0 198.37 149.28;" xml:space="preserve">
<style type="text/css">
	.st0{fill:#29DEC7;}
	.st1{fill:#FF6666;}
</style>
<path class="st0" d="M11.19,17.53h42.99c11.58,0,22.17,2.28,31.76,6.84c9.59,4.56,17.28,11.44,23.07,20.62
	c5.79,9.18,8.69,20.5,8.69,33.95c0,13.34-2.89,24.63-8.69,33.86c-5.79,9.24-13.48,16.14-23.07,20.7
	c-9.59,4.56-20.18,6.84-31.76,6.84H11.19V17.53z M50.84,116.66c11.35,0,20.67-3.1,27.99-9.3c7.31-6.2,10.97-15.67,10.97-28.42
	c0-12.75-3.66-22.22-10.97-28.42c-7.31-6.2-16.64-9.3-27.99-9.3H39.09v75.45H50.84z"/>
<path class="st1" d="M110.2,87.01h13.41l20.19,53.34h-12.95l-3.96-10.74h-20.34l-3.96,10.74H90L110.2,87.01z M123.07,119.32
	l-6.4-16.92l-6.32,16.92H123.07z"/>
<path class="st1" d="M147.91,87.01h21.34c3.4,0,6.41,0.67,9.03,2.02c2.62,1.35,4.65,3.24,6.1,5.68c1.45,2.44,2.17,5.28,2.17,8.53
	c0,2.9-0.71,5.58-2.13,8.04c-1.42,2.46-3.38,4.41-5.87,5.83l13.64,23.24h-13.94l-11.51-20.88h-6.71v20.88h-12.12V87.01z
	 M167.12,109.19c2.29,0,4.08-0.53,5.37-1.6c1.3-1.07,1.94-2.51,1.94-4.34s-0.65-3.28-1.94-4.34c-1.3-1.07-3.09-1.6-5.37-1.6h-7.09
	v11.89H167.12z"/>
</svg>
